<svg xmlns="http://www.w3.org/2000/svg" width="1031.605" height="1018.198" viewBox="0 0 1031.605 1018.198">
  <path id="blob" d="M503.3,116.275C567.818,177.7,628.21,237.059,664.342,319.131c36.132,81.555,47.488,185.822,11.356,275.119C639.049,683.031,554.4,757.36,466.132,765.1c-88.265,8.259-180.144-49.552-262.731-96.008C120.3,623.155,47,588.572,17.063,531.277S.545,394.492,26.87,329.454C53.195,263.9,91.908,213.832,139.912,149.31,187.4,85.305,244.178,7.879,306.635.653,369.608-7.089,438.775,55.367,503.3,116.275Z" transform="matrix(-0.602, -0.799, 0.799, -0.602, 419.933, 1018.198)" fill="#ea6275" opacity="0.11"/>
</svg>
